<?xml version="1.0" encoding="UTF-8" standalone="no"?>
<!DOCTYPE svg PUBLIC "-//W3C//DTD SVG 1.1//EN"
 "http://www.w3.org/Graphics/SVG/1.1/DTD/svg11.dtd">
<!-- Generated by graphviz version 3.0.0 (20220226.1711)
 -->
<!-- Pages: 1 -->
<svg width="486pt" height="1175pt"
 viewBox="0.00 0.00 486.00 1175.00" xmlns="http://www.w3.org/2000/svg" xmlns:xlink="http://www.w3.org/1999/xlink">
<g id="graph0" class="graph" transform="scale(1 1) rotate(0) translate(4 1171)">
<polygon fill="white" stroke="transparent" points="-4,4 -4,-1171 482,-1171 482,4 -4,4"/>
<!-- node_1_0 -->
<g id="node1" class="node">
<title>node_1_0</title>
<polygon fill="red" stroke="black" points="474,-1080 420,-1080 420,-1044 474,-1044 474,-1080"/>
<text text-anchor="middle" x="447" y="-1058.3" font-family="Times,serif" font-size="14.00" fill="white">(1, 0)</text>
</g>
<!-- node_19_13 -->
<g id="node2" class="node">
<title>node_19_13</title>
<polygon fill="none" stroke="red" points="467,-993 407,-993 407,-957 467,-957 467,-993"/>
<text text-anchor="middle" x="437" y="-971.3" font-family="Times,serif" font-size="14.00">(19, 13)</text>
</g>
<!-- node_1_0&#45;&gt;node_19_13 -->
<g id="edge1" class="edge">
<title>node_1_0&#45;&gt;node_19_13</title>
<path fill="none" stroke="red" stroke-dasharray="5,2" d="M444.98,-1043.8C443.61,-1032.16 441.77,-1016.55 440.2,-1003.24"/>
<polygon fill="red" stroke="red" points="443.67,-1002.7 439.02,-993.18 436.71,-1003.52 443.67,-1002.7"/>
<text text-anchor="middle" x="452.5" y="-1014.8" font-family="Times,serif" font-size="14.00">114</text>
</g>
<!-- node_35_11 -->
<g id="node12" class="node">
<title>node_35_11</title>
<polygon fill="none" stroke="red" points="467,-906 407,-906 407,-870 467,-870 467,-906"/>
<text text-anchor="middle" x="437" y="-884.3" font-family="Times,serif" font-size="14.00">(35, 11)</text>
</g>
<!-- node_19_13&#45;&gt;node_35_11 -->
<g id="edge11" class="edge">
<title>node_19_13&#45;&gt;node_35_11</title>
<path fill="none" stroke="black" d="M437,-946.73C437,-937.06 437,-926.17 437,-916.48"/>
<polygon fill="black" stroke="black" points="433.5,-946.8 437,-956.8 440.5,-946.8 433.5,-946.8"/>
<polygon fill="black" stroke="black" points="440.5,-916.18 437,-906.18 433.5,-916.18 440.5,-916.18"/>
<text text-anchor="middle" x="447.5" y="-927.8" font-family="Times,serif" font-size="14.00">121</text>
</g>
<!-- node_11_67 -->
<g id="node3" class="node">
<title>node_11_67</title>
<polygon fill="none" stroke="red" points="320,-1167 260,-1167 260,-1131 320,-1131 320,-1167"/>
<text text-anchor="middle" x="290" y="-1145.3" font-family="Times,serif" font-size="14.00">(11, 67)</text>
</g>
<!-- node_11_87 -->
<g id="node4" class="node">
<title>node_11_87</title>
<polygon fill="none" stroke="red" points="245,-1080 185,-1080 185,-1044 245,-1044 245,-1080"/>
<text text-anchor="middle" x="215" y="-1058.3" font-family="Times,serif" font-size="14.00">(11, 87)</text>
</g>
<!-- node_11_67&#45;&gt;node_11_87 -->
<g id="edge2" class="edge">
<title>node_11_67&#45;&gt;node_11_87</title>
<path fill="none" stroke="red" d="M264.86,-1123.54C261.48,-1120.06 258.11,-1116.48 255,-1113 247.96,-1105.13 240.63,-1096.22 234.21,-1088.12"/>
<polygon fill="red" stroke="red" points="262.64,-1126.27 272.16,-1130.92 267.62,-1121.35 262.64,-1126.27"/>
<polygon fill="red" stroke="red" points="236.81,-1085.76 227.88,-1080.05 231.3,-1090.08 236.81,-1085.76"/>
<text text-anchor="middle" x="265.5" y="-1101.8" font-family="Times,serif" font-size="14.00">135</text>
</g>
<!-- node_15_29 -->
<g id="node5" class="node">
<title>node_15_29</title>
<polygon fill="none" stroke="red" points="400,-1080 340,-1080 340,-1044 400,-1044 400,-1080"/>
<text text-anchor="middle" x="370" y="-1058.3" font-family="Times,serif" font-size="14.00">(15, 29)</text>
</g>
<!-- node_11_67&#45;&gt;node_15_29 -->
<g id="edge3" class="edge">
<title>node_11_67&#45;&gt;node_15_29</title>
<path fill="none" stroke="red" d="M313.09,-1123.47C323.69,-1112.2 336.24,-1098.87 346.85,-1087.6"/>
<polygon fill="red" stroke="red" points="310.49,-1121.12 306.19,-1130.8 315.59,-1125.92 310.49,-1121.12"/>
<polygon fill="red" stroke="red" points="349.53,-1089.86 353.83,-1080.18 344.43,-1085.06 349.53,-1089.86"/>
<text text-anchor="middle" x="344.5" y="-1101.8" font-family="Times,serif" font-size="14.00">365</text>
</g>
<!-- node_33_67 -->
<g id="node6" class="node">
<title>node_33_67</title>
<polygon fill="none" stroke="red" points="320,-906 260,-906 260,-870 320,-870 320,-906"/>
<text text-anchor="middle" x="290" y="-884.3" font-family="Times,serif" font-size="14.00">(33, 67)</text>
</g>
<!-- node_11_67&#45;&gt;node_33_67 -->
<g id="edge4" class="edge">
<title>node_11_67&#45;&gt;node_33_67</title>
<path fill="none" stroke="black" d="M290,-1120.49C290,-1070.66 290,-966.03 290,-916.33"/>
<polygon fill="black" stroke="black" points="286.5,-1120.6 290,-1130.6 293.5,-1120.6 286.5,-1120.6"/>
<polygon fill="black" stroke="black" points="293.5,-916.32 290,-906.32 286.5,-916.32 293.5,-916.32"/>
<text text-anchor="middle" x="300.5" y="-1014.8" font-family="Times,serif" font-size="14.00">105</text>
</g>
<!-- node_15_113 -->
<g id="node7" class="node">
<title>node_15_113</title>
<polygon fill="none" stroke="red" points="168.5,-993 101.5,-993 101.5,-957 168.5,-957 168.5,-993"/>
<text text-anchor="middle" x="135" y="-971.3" font-family="Times,serif" font-size="14.00">(15, 113)</text>
</g>
<!-- node_11_87&#45;&gt;node_15_113 -->
<g id="edge5" class="edge">
<title>node_11_87&#45;&gt;node_15_113</title>
<path fill="none" stroke="red" d="M190.05,-1036.37C186.64,-1032.91 183.21,-1029.39 180,-1026 172.4,-1017.99 164.28,-1009.09 157.06,-1001.03"/>
<polygon fill="red" stroke="red" points="187.84,-1039.11 197.37,-1043.73 192.8,-1034.17 187.84,-1039.11"/>
<polygon fill="red" stroke="red" points="159.46,-998.46 150.19,-993.33 154.24,-1003.12 159.46,-998.46"/>
<text text-anchor="middle" x="190.5" y="-1014.8" font-family="Times,serif" font-size="14.00">229</text>
</g>
<!-- node_35_81 -->
<g id="node8" class="node">
<title>node_35_81</title>
<polygon fill="none" stroke="red" points="244,-819 184,-819 184,-783 244,-783 244,-819"/>
<text text-anchor="middle" x="214" y="-797.3" font-family="Times,serif" font-size="14.00">(35, 81)</text>
</g>
<!-- node_11_87&#45;&gt;node_35_81 -->
<g id="edge6" class="edge">
<title>node_11_87&#45;&gt;node_35_81</title>
<path fill="none" stroke="black" d="M214.89,-1033.49C214.7,-983.66 214.3,-879.03 214.11,-829.33"/>
<polygon fill="black" stroke="black" points="211.39,-1033.62 214.93,-1043.6 218.39,-1033.59 211.39,-1033.62"/>
<polygon fill="black" stroke="black" points="217.61,-829.31 214.07,-819.32 210.61,-829.33 217.61,-829.31"/>
<text text-anchor="middle" x="225.5" y="-927.8" font-family="Times,serif" font-size="14.00">105</text>
</g>
<!-- node_15_29&#45;&gt;node_19_13 -->
<g id="edge7" class="edge">
<title>node_15_29&#45;&gt;node_19_13</title>
<path fill="none" stroke="red" d="M389.95,-1035.69C398.56,-1024.76 408.62,-1012 417.22,-1001.1"/>
<polygon fill="red" stroke="red" points="387,-1033.78 383.56,-1043.8 392.5,-1038.11 387,-1033.78"/>
<polygon fill="red" stroke="red" points="420.02,-1003.2 423.46,-993.18 414.52,-998.86 420.02,-1003.2"/>
<text text-anchor="middle" x="417.5" y="-1014.8" font-family="Times,serif" font-size="14.00">115</text>
</g>
<!-- node_41_37 -->
<g id="node9" class="node">
<title>node_41_37</title>
<polygon fill="none" stroke="red" points="400,-819 340,-819 340,-783 400,-783 400,-819"/>
<text text-anchor="middle" x="370" y="-797.3" font-family="Times,serif" font-size="14.00">(41, 37)</text>
</g>
<!-- node_15_29&#45;&gt;node_41_37 -->
<g id="edge8" class="edge">
<title>node_15_29&#45;&gt;node_41_37</title>
<path fill="none" stroke="black" d="M370,-1033.49C370,-983.66 370,-879.03 370,-829.33"/>
<polygon fill="black" stroke="black" points="366.5,-1033.6 370,-1043.6 373.5,-1033.6 366.5,-1033.6"/>
<polygon fill="black" stroke="black" points="373.5,-829.32 370,-819.32 366.5,-829.32 373.5,-829.32"/>
<text text-anchor="middle" x="380.5" y="-927.8" font-family="Times,serif" font-size="14.00">165</text>
</g>
<!-- node_33_67&#45;&gt;node_35_81 -->
<g id="edge16" class="edge">
<title>node_33_67&#45;&gt;node_35_81</title>
<path fill="none" stroke="black" d="M267.72,-862.08C257.8,-850.98 246.14,-837.94 236.22,-826.85"/>
<polygon fill="black" stroke="black" points="265.35,-864.68 274.62,-869.8 270.56,-860.01 265.35,-864.68"/>
<polygon fill="black" stroke="black" points="238.63,-824.3 229.36,-819.18 233.41,-828.96 238.63,-824.3"/>
<text text-anchor="middle" x="264" y="-840.8" font-family="Times,serif" font-size="14.00">83</text>
</g>
<!-- node_33_67&#45;&gt;node_41_37 -->
<g id="edge17" class="edge">
<title>node_33_67&#45;&gt;node_41_37</title>
<path fill="none" stroke="red" d="M312.06,-861.97C319.28,-853.91 327.4,-845.01 335,-837 338.21,-833.61 341.64,-830.09 345.05,-826.63"/>
<polygon fill="red" stroke="red" points="309.24,-859.88 305.19,-869.67 314.46,-864.54 309.24,-859.88"/>
<polygon fill="red" stroke="red" points="347.8,-828.83 352.37,-819.27 342.84,-823.89 347.8,-828.83"/>
<text text-anchor="middle" x="345.5" y="-840.8" font-family="Times,serif" font-size="14.00">229</text>
</g>
<!-- node_59_63 -->
<g id="node15" class="node">
<title>node_59_63</title>
<polygon fill="none" stroke="red" points="322,-819 262,-819 262,-783 322,-783 322,-819"/>
<text text-anchor="middle" x="292" y="-797.3" font-family="Times,serif" font-size="14.00">(59, 63)</text>
</g>
<!-- node_33_67&#45;&gt;node_59_63 -->
<g id="edge18" class="edge">
<title>node_33_67&#45;&gt;node_59_63</title>
<path fill="none" stroke="red" d="M290.5,-859.66C290.65,-852.3 290.82,-844.35 291,-837 291.06,-834.45 291.13,-831.79 291.2,-829.13"/>
<polygon fill="red" stroke="red" points="287,-859.81 290.31,-869.87 294,-859.94 287,-859.81"/>
<polygon fill="red" stroke="red" points="294.7,-829.18 291.48,-819.09 287.7,-828.99 294.7,-829.18"/>
<text text-anchor="middle" x="301.5" y="-840.8" font-family="Times,serif" font-size="14.00">185</text>
</g>
<!-- node_31_113 -->
<g id="node10" class="node">
<title>node_31_113</title>
<polygon fill="none" stroke="red" points="168.5,-906 101.5,-906 101.5,-870 168.5,-870 168.5,-906"/>
<text text-anchor="middle" x="135" y="-884.3" font-family="Times,serif" font-size="14.00">(31, 113)</text>
</g>
<!-- node_15_113&#45;&gt;node_31_113 -->
<g id="edge9" class="edge">
<title>node_15_113&#45;&gt;node_31_113</title>
<path fill="none" stroke="black" d="M135,-946.73C135,-937.06 135,-926.17 135,-916.48"/>
<polygon fill="black" stroke="black" points="131.5,-946.8 135,-956.8 138.5,-946.8 131.5,-946.8"/>
<polygon fill="black" stroke="black" points="138.5,-916.18 135,-906.18 131.5,-916.18 138.5,-916.18"/>
<text text-anchor="middle" x="142" y="-927.8" font-family="Times,serif" font-size="14.00">75</text>
</g>
<!-- node_31_131 -->
<g id="node11" class="node">
<title>node_31_131</title>
<polygon fill="none" stroke="red" points="87.5,-819 20.5,-819 20.5,-783 87.5,-783 87.5,-819"/>
<text text-anchor="middle" x="54" y="-797.3" font-family="Times,serif" font-size="14.00">(31, 131)</text>
</g>
<!-- node_15_113&#45;&gt;node_31_131 -->
<g id="edge10" class="edge">
<title>node_15_113&#45;&gt;node_31_131</title>
<path fill="none" stroke="red" d="M105.42,-949.83C92.83,-937.94 79.2,-922.61 71,-906 59.08,-881.86 55.25,-851.11 54.14,-829.33"/>
<polygon fill="red" stroke="red" points="103.3,-952.63 113.05,-956.76 108,-947.45 103.3,-952.63"/>
<polygon fill="red" stroke="red" points="57.63,-829 53.79,-819.13 50.64,-829.24 57.63,-829"/>
<text text-anchor="middle" x="81.5" y="-884.3" font-family="Times,serif" font-size="14.00">377</text>
</g>
<!-- node_59_87 -->
<g id="node17" class="node">
<title>node_59_87</title>
<polygon fill="none" stroke="red" points="244,-732 184,-732 184,-696 244,-696 244,-732"/>
<text text-anchor="middle" x="214" y="-710.3" font-family="Times,serif" font-size="14.00">(59, 87)</text>
</g>
<!-- node_35_81&#45;&gt;node_59_87 -->
<g id="edge21" class="edge">
<title>node_35_81&#45;&gt;node_59_87</title>
<path fill="none" stroke="red" d="M214,-772.73C214,-763.06 214,-752.17 214,-742.48"/>
<polygon fill="red" stroke="red" points="210.5,-772.8 214,-782.8 217.5,-772.8 210.5,-772.8"/>
<polygon fill="red" stroke="red" points="217.5,-742.18 214,-732.18 210.5,-742.18 217.5,-742.18"/>
<text text-anchor="middle" x="224.5" y="-753.8" font-family="Times,serif" font-size="14.00">113</text>
</g>
<!-- node_65_35 -->
<g id="node18" class="node">
<title>node_65_35</title>
<polygon fill="none" stroke="black" points="398,-732 338,-732 338,-696 398,-696 398,-732"/>
<text text-anchor="middle" x="368" y="-710.3" font-family="Times,serif" font-size="14.00">(65, 35)</text>
</g>
<!-- node_41_37&#45;&gt;node_65_35 -->
<g id="edge22" class="edge">
<title>node_41_37&#45;&gt;node_65_35</title>
<path fill="none" stroke="black" d="M369.36,-772.73C369.13,-763.06 368.87,-752.17 368.65,-742.48"/>
<polygon fill="black" stroke="black" points="365.86,-772.88 369.6,-782.8 372.86,-772.72 365.86,-772.88"/>
<polygon fill="black" stroke="black" points="372.14,-742.09 368.4,-732.18 365.14,-742.26 372.14,-742.09"/>
<text text-anchor="middle" x="376" y="-753.8" font-family="Times,serif" font-size="14.00">93</text>
</g>
<!-- node_31_113&#45;&gt;node_35_81 -->
<g id="edge13" class="edge">
<title>node_31_113&#45;&gt;node_35_81</title>
<path fill="none" stroke="red" d="M157.13,-862.03C164.36,-853.98 172.46,-845.06 180,-837 183.14,-833.64 186.49,-830.13 189.8,-826.68"/>
<polygon fill="red" stroke="red" points="154.31,-859.94 150.25,-869.73 159.53,-864.61 154.31,-859.94"/>
<polygon fill="red" stroke="red" points="192.48,-828.94 196.92,-819.32 187.45,-824.07 192.48,-828.94"/>
<text text-anchor="middle" x="190.5" y="-840.8" font-family="Times,serif" font-size="14.00">195</text>
</g>
<!-- node_31_113&#45;&gt;node_31_131 -->
<g id="edge12" class="edge">
<title>node_31_113&#45;&gt;node_31_131</title>
<path fill="none" stroke="black" d="M111.62,-862.47C100.89,-851.2 88.19,-837.87 77.44,-826.6"/>
<polygon fill="black" stroke="black" points="109.18,-864.97 118.61,-869.8 114.24,-860.15 109.18,-864.97"/>
<polygon fill="black" stroke="black" points="79.8,-824 70.37,-819.18 74.73,-828.83 79.8,-824"/>
<text text-anchor="middle" x="110.5" y="-840.8" font-family="Times,serif" font-size="14.00">105</text>
</g>
<!-- node_55_99 -->
<g id="node13" class="node">
<title>node_55_99</title>
<polygon fill="none" stroke="red" points="166,-819 106,-819 106,-783 166,-783 166,-819"/>
<text text-anchor="middle" x="136" y="-797.3" font-family="Times,serif" font-size="14.00">(55, 99)</text>
</g>
<!-- node_31_113&#45;&gt;node_55_99 -->
<g id="edge14" class="edge">
<title>node_31_113&#45;&gt;node_55_99</title>
<path fill="none" stroke="red" d="M135.32,-859.73C135.43,-850.06 135.56,-839.17 135.68,-829.48"/>
<polygon fill="red" stroke="red" points="131.82,-859.76 135.2,-869.8 138.82,-859.84 131.82,-859.76"/>
<polygon fill="red" stroke="red" points="139.18,-829.22 135.8,-819.18 132.18,-829.13 139.18,-829.22"/>
<text text-anchor="middle" x="146.5" y="-840.8" font-family="Times,serif" font-size="14.00">185</text>
</g>
<!-- node_57_135 -->
<g id="node14" class="node">
<title>node_57_135</title>
<polygon fill="none" stroke="red" points="111.5,-732 44.5,-732 44.5,-696 111.5,-696 111.5,-732"/>
<text text-anchor="middle" x="78" y="-710.3" font-family="Times,serif" font-size="14.00">(57, 135)</text>
</g>
<!-- node_31_131&#45;&gt;node_57_135 -->
<g id="edge15" class="edge">
<title>node_31_131&#45;&gt;node_57_135</title>
<path fill="none" stroke="red" d="M56.27,-772.58C57.31,-765.15 58.81,-757.18 61,-750 61.9,-747.06 63.01,-744.05 64.24,-741.11"/>
<polygon fill="red" stroke="red" points="52.78,-772.25 55.09,-782.59 59.74,-773.06 52.78,-772.25"/>
<polygon fill="red" stroke="red" points="67.42,-742.56 68.42,-732.01 61.06,-739.64 67.42,-742.56"/>
<text text-anchor="middle" x="71.5" y="-753.8" font-family="Times,serif" font-size="14.00">157</text>
</g>
<!-- node_35_11&#45;&gt;node_41_37 -->
<g id="edge19" class="edge">
<title>node_35_11&#45;&gt;node_41_37</title>
<path fill="none" stroke="red" d="M417.05,-861.69C408.44,-850.76 398.38,-838 389.78,-827.1"/>
<polygon fill="red" stroke="red" points="414.5,-864.11 423.44,-869.8 420,-859.78 414.5,-864.11"/>
<polygon fill="red" stroke="red" points="392.48,-824.86 383.54,-819.18 386.98,-829.2 392.48,-824.86"/>
<text text-anchor="middle" x="417.5" y="-840.8" font-family="Times,serif" font-size="14.00">183</text>
</g>
<!-- node_65_13 -->
<g id="node16" class="node">
<title>node_65_13</title>
<polygon fill="none" stroke="red" points="478,-819 418,-819 418,-783 478,-783 478,-819"/>
<text text-anchor="middle" x="448" y="-797.3" font-family="Times,serif" font-size="14.00">(65, 13)</text>
</g>
<!-- node_35_11&#45;&gt;node_65_13 -->
<g id="edge20" class="edge">
<title>node_35_11&#45;&gt;node_65_13</title>
<path fill="none" stroke="red" d="M440.53,-859.73C441.79,-849.96 443.22,-838.94 444.48,-829.17"/>
<polygon fill="red" stroke="red" points="437.04,-859.43 439.23,-869.8 443.98,-860.33 437.04,-859.43"/>
<polygon fill="red" stroke="red" points="447.96,-829.54 445.78,-819.18 441.02,-828.64 447.96,-829.54"/>
<text text-anchor="middle" x="453.5" y="-840.8" font-family="Times,serif" font-size="14.00">259</text>
</g>
<!-- node_55_99&#45;&gt;node_57_135 -->
<g id="edge23" class="edge">
<title>node_55_99&#45;&gt;node_57_135</title>
<path fill="none" stroke="black" d="M114.32,-774.83C111.77,-771.59 109.27,-768.26 107,-765 101.72,-757.43 96.49,-748.84 91.96,-740.94"/>
<polygon fill="black" stroke="black" points="111.64,-777.08 120.66,-782.64 117.07,-772.67 111.64,-777.08"/>
<polygon fill="black" stroke="black" points="94.94,-739.1 86.99,-732.1 88.83,-742.53 94.94,-739.1"/>
<text text-anchor="middle" x="117.5" y="-753.8" font-family="Times,serif" font-size="14.00">273</text>
</g>
<!-- node_55_99&#45;&gt;node_59_87 -->
<g id="edge24" class="edge">
<title>node_55_99&#45;&gt;node_59_87</title>
<path fill="none" stroke="black" d="M158.87,-775.08C169.05,-763.98 181.02,-750.94 191.2,-739.85"/>
<polygon fill="black" stroke="black" points="155.97,-773.06 151.78,-782.8 161.12,-777.8 155.97,-773.06"/>
<polygon fill="black" stroke="black" points="194.06,-741.91 198.24,-732.18 188.9,-737.18 194.06,-741.91"/>
<text text-anchor="middle" x="187" y="-753.8" font-family="Times,serif" font-size="14.00">39</text>
</g>
<!-- node_85_101 -->
<g id="node19" class="node">
<title>node_85_101</title>
<polygon fill="none" stroke="red" points="178.5,-558 111.5,-558 111.5,-522 178.5,-522 178.5,-558"/>
<text text-anchor="middle" x="145" y="-536.3" font-family="Times,serif" font-size="14.00">(85, 101)</text>
</g>
<!-- node_55_99&#45;&gt;node_85_101 -->
<g id="edge25" class="edge">
<title>node_55_99&#45;&gt;node_85_101</title>
<path fill="none" stroke="red" d="M136.96,-772.49C138.69,-722.66 142.32,-618.03 144.05,-568.33"/>
<polygon fill="red" stroke="red" points="133.45,-772.49 136.6,-782.6 140.45,-772.73 133.45,-772.49"/>
<polygon fill="red" stroke="red" points="147.55,-568.44 144.4,-558.32 140.55,-568.19 147.55,-568.44"/>
<text text-anchor="middle" x="151.5" y="-666.8" font-family="Times,serif" font-size="14.00">211</text>
</g>
<!-- node_89_135 -->
<g id="node20" class="node">
<title>node_89_135</title>
<polygon fill="none" stroke="red" points="113.5,-471 46.5,-471 46.5,-435 113.5,-435 113.5,-471"/>
<text text-anchor="middle" x="80" y="-449.3" font-family="Times,serif" font-size="14.00">(89, 135)</text>
</g>
<!-- node_57_135&#45;&gt;node_89_135 -->
<g id="edge26" class="edge">
<title>node_57_135&#45;&gt;node_89_135</title>
<path fill="none" stroke="red" d="M78.21,-685.49C78.6,-635.66 79.41,-531.03 79.79,-481.33"/>
<polygon fill="red" stroke="red" points="74.71,-685.58 78.13,-695.6 81.71,-685.63 74.71,-685.58"/>
<polygon fill="red" stroke="red" points="83.29,-481.35 79.87,-471.32 76.29,-481.29 83.29,-481.35"/>
<text text-anchor="middle" x="90.5" y="-579.8" font-family="Times,serif" font-size="14.00">175</text>
</g>
<!-- node_59_63&#45;&gt;node_59_87 -->
<g id="edge27" class="edge">
<title>node_59_63&#45;&gt;node_59_87</title>
<path fill="none" stroke="black" d="M269.13,-775.08C258.95,-763.98 246.98,-750.94 236.8,-739.85"/>
<polygon fill="black" stroke="black" points="266.88,-777.8 276.22,-782.8 272.03,-773.06 266.88,-777.8"/>
<polygon fill="black" stroke="black" points="239.1,-737.18 229.76,-732.18 233.94,-741.91 239.1,-737.18"/>
<text text-anchor="middle" x="265" y="-753.8" font-family="Times,serif" font-size="14.00">83</text>
</g>
<!-- node_59_63&#45;&gt;node_65_35 -->
<g id="edge28" class="edge">
<title>node_59_63&#45;&gt;node_65_35</title>
<path fill="none" stroke="black" d="M314.28,-775.08C324.2,-763.98 335.86,-750.94 345.78,-739.85"/>
<polygon fill="black" stroke="black" points="311.44,-773.01 307.38,-782.8 316.65,-777.68 311.44,-773.01"/>
<polygon fill="black" stroke="black" points="348.59,-741.96 352.64,-732.18 343.37,-737.3 348.59,-741.96"/>
<text text-anchor="middle" x="344.5" y="-753.8" font-family="Times,serif" font-size="14.00">173</text>
</g>
<!-- node_89_67 -->
<g id="node21" class="node">
<title>node_89_67</title>
<polygon fill="none" stroke="red" points="323,-558 263,-558 263,-522 323,-522 323,-558"/>
<text text-anchor="middle" x="293" y="-536.3" font-family="Times,serif" font-size="14.00">(89, 67)</text>
</g>
<!-- node_59_63&#45;&gt;node_89_67 -->
<g id="edge29" class="edge">
<title>node_59_63&#45;&gt;node_89_67</title>
<path fill="none" stroke="red" d="M292.11,-772.49C292.3,-722.66 292.7,-618.03 292.89,-568.33"/>
<polygon fill="red" stroke="red" points="288.61,-772.59 292.07,-782.6 295.61,-772.62 288.61,-772.59"/>
<polygon fill="red" stroke="red" points="296.39,-568.33 292.93,-558.32 289.39,-568.31 296.39,-568.33"/>
<text text-anchor="middle" x="303.5" y="-666.8" font-family="Times,serif" font-size="14.00">169</text>
</g>
<!-- node_65_13&#45;&gt;node_65_35 -->
<g id="edge31" class="edge">
<title>node_65_13&#45;&gt;node_65_35</title>
<path fill="none" stroke="black" d="M424.91,-775.47C414.31,-764.2 401.76,-750.87 391.15,-739.6"/>
<polygon fill="black" stroke="black" points="422.41,-777.92 431.81,-782.8 427.51,-773.12 422.41,-777.92"/>
<polygon fill="black" stroke="black" points="393.57,-737.06 384.17,-732.18 388.47,-741.86 393.57,-737.06"/>
<text text-anchor="middle" x="419" y="-753.8" font-family="Times,serif" font-size="14.00">97</text>
</g>
<!-- node_87_19 -->
<g id="node23" class="node">
<title>node_87_19</title>
<polygon fill="none" stroke="red" points="457,-558 397,-558 397,-522 457,-522 457,-558"/>
<text text-anchor="middle" x="427" y="-536.3" font-family="Times,serif" font-size="14.00">(87, 19)</text>
</g>
<!-- node_65_13&#45;&gt;node_87_19 -->
<g id="edge32" class="edge">
<title>node_65_13&#45;&gt;node_87_19</title>
<path fill="none" stroke="red" d="M445.77,-772.49C441.73,-722.66 433.25,-618.03 429.22,-568.33"/>
<polygon fill="red" stroke="red" points="442.29,-772.92 446.59,-782.6 449.27,-772.35 442.29,-772.92"/>
<polygon fill="red" stroke="red" points="432.7,-568 428.4,-558.32 425.72,-568.57 432.7,-568"/>
<text text-anchor="middle" x="447.5" y="-666.8" font-family="Times,serif" font-size="14.00">187</text>
</g>
<!-- node_85_81 -->
<g id="node22" class="node">
<title>node_85_81</title>
<polygon fill="none" stroke="red" points="244,-645 184,-645 184,-609 244,-609 244,-645"/>
<text text-anchor="middle" x="214" y="-623.3" font-family="Times,serif" font-size="14.00">(85, 81)</text>
</g>
<!-- node_59_87&#45;&gt;node_85_81 -->
<g id="edge30" class="edge">
<title>node_59_87&#45;&gt;node_85_81</title>
<path fill="none" stroke="red" d="M214,-685.73C214,-676.06 214,-665.17 214,-655.48"/>
<polygon fill="red" stroke="red" points="210.5,-685.8 214,-695.8 217.5,-685.8 210.5,-685.8"/>
<polygon fill="red" stroke="red" points="217.5,-655.18 214,-645.18 210.5,-655.18 217.5,-655.18"/>
<text text-anchor="middle" x="224.5" y="-666.8" font-family="Times,serif" font-size="14.00">175</text>
</g>
<!-- node_77_29 -->
<g id="node24" class="node">
<title>node_77_29</title>
<polygon fill="none" stroke="red" points="393,-645 333,-645 333,-609 393,-609 393,-645"/>
<text text-anchor="middle" x="363" y="-623.3" font-family="Times,serif" font-size="14.00">(77, 29)</text>
</g>
<!-- node_65_35&#45;&gt;node_77_29 -->
<g id="edge33" class="edge">
<title>node_65_35&#45;&gt;node_77_29</title>
<path fill="none" stroke="black" d="M366.4,-685.73C365.82,-675.96 365.17,-664.94 364.6,-655.17"/>
<polygon fill="black" stroke="black" points="362.91,-686.02 366.99,-695.8 369.89,-685.61 362.91,-686.02"/>
<polygon fill="black" stroke="black" points="368.09,-654.95 364.01,-645.18 361.1,-655.36 368.09,-654.95"/>
<text text-anchor="middle" x="372" y="-666.8" font-family="Times,serif" font-size="14.00">49</text>
</g>
<!-- node_85_101&#45;&gt;node_89_135 -->
<g id="edge40" class="edge">
<title>node_85_101&#45;&gt;node_89_135</title>
<path fill="none" stroke="red" d="M120.58,-514.22C117.59,-510.87 114.66,-507.41 112,-504 106.1,-496.44 100.27,-487.78 95.23,-479.81"/>
<polygon fill="red" stroke="red" points="118.19,-516.79 127.54,-521.77 123.33,-512.05 118.19,-516.79"/>
<polygon fill="red" stroke="red" points="98.14,-477.87 89.91,-471.2 92.19,-481.55 98.14,-477.87"/>
<text text-anchor="middle" x="122.5" y="-492.8" font-family="Times,serif" font-size="14.00">265</text>
</g>
<!-- node_107_99 -->
<g id="node27" class="node">
<title>node_107_99</title>
<polygon fill="none" stroke="red" points="180.5,-297 113.5,-297 113.5,-261 180.5,-261 180.5,-297"/>
<text text-anchor="middle" x="147" y="-275.3" font-family="Times,serif" font-size="14.00">(107, 99)</text>
</g>
<!-- node_85_101&#45;&gt;node_107_99 -->
<g id="edge41" class="edge">
<title>node_85_101&#45;&gt;node_107_99</title>
<path fill="none" stroke="black" d="M145.21,-511.49C145.6,-461.66 146.41,-357.03 146.79,-307.33"/>
<polygon fill="black" stroke="black" points="141.71,-511.58 145.13,-521.6 148.71,-511.63 141.71,-511.58"/>
<polygon fill="black" stroke="black" points="150.29,-307.35 146.87,-297.32 143.29,-307.29 150.29,-307.35"/>
<text text-anchor="middle" x="154" y="-405.8" font-family="Times,serif" font-size="14.00">87</text>
</g>
<!-- node_105_137 -->
<g id="node30" class="node">
<title>node_105_137</title>
<polygon fill="none" stroke="red" points="117,-384 43,-384 43,-348 117,-348 117,-384"/>
<text text-anchor="middle" x="80" y="-362.3" font-family="Times,serif" font-size="14.00">(105, 137)</text>
</g>
<!-- node_89_135&#45;&gt;node_105_137 -->
<g id="edge44" class="edge">
<title>node_89_135&#45;&gt;node_105_137</title>
<path fill="none" stroke="black" d="M80,-424.73C80,-415.06 80,-404.17 80,-394.48"/>
<polygon fill="black" stroke="black" points="76.5,-424.8 80,-434.8 83.5,-424.8 76.5,-424.8"/>
<polygon fill="black" stroke="black" points="83.5,-394.18 80,-384.18 76.5,-394.18 83.5,-394.18"/>
<text text-anchor="middle" x="87" y="-405.8" font-family="Times,serif" font-size="14.00">53</text>
</g>
<!-- node_103_55 -->
<g id="node29" class="node">
<title>node_103_55</title>
<polygon fill="none" stroke="red" points="328.5,-471 261.5,-471 261.5,-435 328.5,-435 328.5,-471"/>
<text text-anchor="middle" x="295" y="-449.3" font-family="Times,serif" font-size="14.00">(103, 55)</text>
</g>
<!-- node_89_67&#45;&gt;node_103_55 -->
<g id="edge43" class="edge">
<title>node_89_67&#45;&gt;node_103_55</title>
<path fill="none" stroke="black" d="M293.64,-511.73C293.87,-502.06 294.13,-491.17 294.35,-481.48"/>
<polygon fill="black" stroke="black" points="290.14,-511.72 293.4,-521.8 297.14,-511.88 290.14,-511.72"/>
<polygon fill="black" stroke="black" points="297.86,-481.26 294.6,-471.18 290.86,-481.09 297.86,-481.26"/>
<text text-anchor="middle" x="302" y="-492.8" font-family="Times,serif" font-size="14.00">81</text>
</g>
<!-- node_85_81&#45;&gt;node_85_101 -->
<g id="edge37" class="edge">
<title>node_85_81&#45;&gt;node_85_101</title>
<path fill="none" stroke="black" d="M193.46,-600.69C184.58,-589.76 174.23,-577 165.37,-566.1"/>
<polygon fill="black" stroke="black" points="191.02,-603.24 200.04,-608.8 196.45,-598.83 191.02,-603.24"/>
<polygon fill="black" stroke="black" points="167.96,-563.73 158.94,-558.18 162.53,-568.15 167.96,-563.73"/>
<text text-anchor="middle" x="191" y="-579.8" font-family="Times,serif" font-size="14.00">75</text>
</g>
<!-- node_85_81&#45;&gt;node_89_67 -->
<g id="edge38" class="edge">
<title>node_85_81&#45;&gt;node_89_67</title>
<path fill="none" stroke="black" d="M236.8,-601.47C247.27,-590.2 259.66,-576.87 270.14,-565.6"/>
<polygon fill="black" stroke="black" points="234.23,-599.09 229.99,-608.8 239.36,-603.86 234.23,-599.09"/>
<polygon fill="black" stroke="black" points="272.79,-567.88 277.04,-558.18 267.67,-563.12 272.79,-567.88"/>
<text text-anchor="middle" x="266" y="-579.8" font-family="Times,serif" font-size="14.00">89</text>
</g>
<!-- node_113_81 -->
<g id="node26" class="node">
<title>node_113_81</title>
<polygon fill="none" stroke="red" points="247.5,-210 180.5,-210 180.5,-174 247.5,-174 247.5,-210"/>
<text text-anchor="middle" x="214" y="-188.3" font-family="Times,serif" font-size="14.00">(113, 81)</text>
</g>
<!-- node_85_81&#45;&gt;node_113_81 -->
<g id="edge39" class="edge">
<title>node_85_81&#45;&gt;node_113_81</title>
<path fill="none" stroke="red" d="M214.49,-598.6C214.74,-581.95 215,-560.25 215,-541 215,-541 215,-541 215,-278 215,-258.75 214.74,-237.05 214.49,-220.4"/>
<polygon fill="red" stroke="red" points="210.98,-598.69 214.32,-608.74 217.98,-598.8 210.98,-598.69"/>
<polygon fill="red" stroke="red" points="217.98,-220.2 214.32,-210.26 210.98,-220.31 217.98,-220.2"/>
<text text-anchor="middle" x="222" y="-405.8" font-family="Times,serif" font-size="14.00">91</text>
</g>
<!-- node_107_11 -->
<g id="node28" class="node">
<title>node_107_11</title>
<polygon fill="none" stroke="red" points="460.5,-471 393.5,-471 393.5,-435 460.5,-435 460.5,-471"/>
<text text-anchor="middle" x="427" y="-449.3" font-family="Times,serif" font-size="14.00">(107, 11)</text>
</g>
<!-- node_87_19&#45;&gt;node_107_11 -->
<g id="edge42" class="edge">
<title>node_87_19&#45;&gt;node_107_11</title>
<path fill="none" stroke="red" d="M427,-511.73C427,-502.06 427,-491.17 427,-481.48"/>
<polygon fill="red" stroke="red" points="423.5,-511.8 427,-521.8 430.5,-511.8 423.5,-511.8"/>
<polygon fill="red" stroke="red" points="430.5,-481.18 427,-471.18 423.5,-481.18 430.5,-481.18"/>
<text text-anchor="middle" x="437.5" y="-492.8" font-family="Times,serif" font-size="14.00">191</text>
</g>
<!-- node_77_29&#45;&gt;node_89_67 -->
<g id="edge35" class="edge">
<title>node_77_29&#45;&gt;node_89_67</title>
<path fill="none" stroke="red" d="M336.1,-601.97C332.57,-598.41 329.11,-594.7 326,-591 319.78,-583.59 313.73,-574.97 308.54,-566.99"/>
<polygon fill="red" stroke="red" points="333.72,-604.54 343.34,-608.98 338.59,-599.51 333.72,-604.54"/>
<polygon fill="red" stroke="red" points="311.38,-564.94 303.08,-558.35 305.46,-568.68 311.38,-564.94"/>
<text text-anchor="middle" x="336.5" y="-579.8" font-family="Times,serif" font-size="14.00">265</text>
</g>
<!-- node_77_29&#45;&gt;node_87_19 -->
<g id="edge34" class="edge">
<title>node_77_29&#45;&gt;node_87_19</title>
<path fill="none" stroke="black" d="M382.05,-600.69C390.2,-589.87 399.7,-577.25 407.86,-566.42"/>
<polygon fill="black" stroke="black" points="379.17,-598.7 375.95,-608.8 384.76,-602.92 379.17,-598.7"/>
<polygon fill="black" stroke="black" points="410.85,-568.27 414.07,-558.18 405.26,-564.06 410.85,-568.27"/>
<text text-anchor="middle" x="405" y="-579.8" font-family="Times,serif" font-size="14.00">63</text>
</g>
<!-- node_111_41 -->
<g id="node25" class="node">
<title>node_111_41</title>
<polygon fill="none" stroke="red" points="393.5,-384 326.5,-384 326.5,-348 393.5,-348 393.5,-384"/>
<text text-anchor="middle" x="360" y="-362.3" font-family="Times,serif" font-size="14.00">(111, 41)</text>
</g>
<!-- node_77_29&#45;&gt;node_111_41 -->
<g id="edge36" class="edge">
<title>node_77_29&#45;&gt;node_111_41</title>
<path fill="none" stroke="red" d="M362.68,-598.49C362.1,-548.66 360.89,-444.03 360.32,-394.33"/>
<polygon fill="red" stroke="red" points="359.18,-598.65 362.8,-608.6 366.18,-598.56 359.18,-598.65"/>
<polygon fill="red" stroke="red" points="363.82,-394.28 360.2,-384.32 356.82,-394.36 363.82,-394.28"/>
<text text-anchor="middle" x="371.5" y="-492.8" font-family="Times,serif" font-size="14.00">221</text>
</g>
<!-- node_125_41 -->
<g id="node33" class="node">
<title>node_125_41</title>
<polygon fill="none" stroke="red" points="393.5,-297 326.5,-297 326.5,-261 393.5,-261 393.5,-297"/>
<text text-anchor="middle" x="360" y="-275.3" font-family="Times,serif" font-size="14.00">(125, 41)</text>
</g>
<!-- node_111_41&#45;&gt;node_125_41 -->
<g id="edge54" class="edge">
<title>node_111_41&#45;&gt;node_125_41</title>
<path fill="none" stroke="black" d="M360,-337.73C360,-328.06 360,-317.17 360,-307.48"/>
<polygon fill="black" stroke="black" points="356.5,-337.8 360,-347.8 363.5,-337.8 356.5,-337.8"/>
<polygon fill="black" stroke="black" points="363.5,-307.18 360,-297.18 356.5,-307.18 363.5,-307.18"/>
<text text-anchor="middle" x="367" y="-318.8" font-family="Times,serif" font-size="14.00">65</text>
</g>
<!-- node_127_81 -->
<g id="node35" class="node">
<title>node_127_81</title>
<polygon fill="none" stroke="red" points="247.5,-123 180.5,-123 180.5,-87 247.5,-87 247.5,-123"/>
<text text-anchor="middle" x="214" y="-101.3" font-family="Times,serif" font-size="14.00">(127, 81)</text>
</g>
<!-- node_113_81&#45;&gt;node_127_81 -->
<g id="edge55" class="edge">
<title>node_113_81&#45;&gt;node_127_81</title>
<path fill="none" stroke="black" d="M214,-163.73C214,-154.06 214,-143.17 214,-133.48"/>
<polygon fill="black" stroke="black" points="210.5,-163.8 214,-173.8 217.5,-163.8 210.5,-163.8"/>
<polygon fill="black" stroke="black" points="217.5,-133.18 214,-123.18 210.5,-133.18 217.5,-133.18"/>
<text text-anchor="middle" x="221" y="-144.8" font-family="Times,serif" font-size="14.00">77</text>
</g>
<!-- node_107_99&#45;&gt;node_113_81 -->
<g id="edge52" class="edge">
<title>node_107_99&#45;&gt;node_113_81</title>
<path fill="none" stroke="black" d="M162.73,-252.17C167.93,-244.2 173.94,-235.54 180,-228 182.82,-224.49 185.94,-220.93 189.11,-217.48"/>
<polygon fill="black" stroke="black" points="159.66,-250.47 157.24,-260.78 165.57,-254.23 159.66,-250.47"/>
<polygon fill="black" stroke="black" points="191.67,-219.87 196.03,-210.21 186.6,-215.04 191.67,-219.87"/>
<text text-anchor="middle" x="190.5" y="-231.8" font-family="Times,serif" font-size="14.00">135</text>
</g>
<!-- node_131_105 -->
<g id="node34" class="node">
<title>node_131_105</title>
<polygon fill="none" stroke="red" points="183,-36 109,-36 109,0 183,0 183,-36"/>
<text text-anchor="middle" x="146" y="-14.3" font-family="Times,serif" font-size="14.00">(131, 105)</text>
</g>
<!-- node_107_99&#45;&gt;node_131_105 -->
<g id="edge53" class="edge">
<title>node_107_99&#45;&gt;node_131_105</title>
<path fill="none" stroke="red" d="M146.89,-250.49C146.7,-200.66 146.3,-96.03 146.11,-46.33"/>
<polygon fill="red" stroke="red" points="143.39,-250.62 146.93,-260.6 150.39,-250.59 143.39,-250.62"/>
<polygon fill="red" stroke="red" points="149.61,-46.31 146.07,-36.32 142.61,-46.33 149.61,-46.31"/>
<text text-anchor="middle" x="157.5" y="-144.8" font-family="Times,serif" font-size="14.00">157</text>
</g>
<!-- node_107_11&#45;&gt;node_111_41 -->
<g id="edge50" class="edge">
<title>node_107_11&#45;&gt;node_111_41</title>
<path fill="none" stroke="black" d="M403.67,-427.28C400.69,-423.88 397.72,-420.4 395,-417 388.77,-409.23 382.4,-400.42 376.82,-392.39"/>
<polygon fill="black" stroke="black" points="401.29,-429.86 410.59,-434.95 406.49,-425.18 401.29,-429.86"/>
<polygon fill="black" stroke="black" points="379.67,-390.35 371.14,-384.06 373.89,-394.29 379.67,-390.35"/>
<text text-anchor="middle" x="405.5" y="-405.8" font-family="Times,serif" font-size="14.00">185</text>
</g>
<!-- node_107_11&#45;&gt;node_125_41 -->
<g id="edge51" class="edge">
<title>node_107_11&#45;&gt;node_125_41</title>
<path fill="none" stroke="red" d="M421.14,-424.9C419.51,-417.47 417.71,-409.42 416,-402 410.46,-377.94 412.61,-370.74 403,-348 396.7,-333.09 387.29,-317.75 378.88,-305.42"/>
<polygon fill="red" stroke="red" points="417.76,-425.83 423.32,-434.86 424.6,-424.34 417.76,-425.83"/>
<polygon fill="red" stroke="red" points="381.6,-303.2 372.99,-297.02 375.87,-307.22 381.6,-303.2"/>
<text text-anchor="middle" x="422.5" y="-362.3" font-family="Times,serif" font-size="14.00">503</text>
</g>
<!-- node_103_55&#45;&gt;node_111_41 -->
<g id="edge45" class="edge">
<title>node_103_55&#45;&gt;node_111_41</title>
<path fill="none" stroke="red" d="M314.19,-426.67C320.2,-418.76 326.87,-410.01 333,-402 335.45,-398.8 338.03,-395.44 340.58,-392.12"/>
<polygon fill="red" stroke="red" points="311.24,-424.77 307.98,-434.85 316.82,-429 311.24,-424.77"/>
<polygon fill="red" stroke="red" points="343.46,-394.13 346.79,-384.07 337.91,-389.85 343.46,-394.13"/>
<text text-anchor="middle" x="340" y="-405.8" font-family="Times,serif" font-size="14.00">85</text>
</g>
<!-- node_103_55&#45;&gt;node_113_81 -->
<g id="edge46" class="edge">
<title>node_103_55&#45;&gt;node_113_81</title>
<path fill="none" stroke="red" d="M288.18,-425.09C277.18,-382.69 254.2,-297.97 229,-228 228.01,-225.26 226.92,-222.43 225.79,-219.61"/>
<polygon fill="red" stroke="red" points="284.82,-426.11 290.71,-434.92 291.6,-424.36 284.82,-426.11"/>
<polygon fill="red" stroke="red" points="228.98,-218.16 221.89,-210.28 222.52,-220.86 228.98,-218.16"/>
<text text-anchor="middle" x="272.5" y="-318.8" font-family="Times,serif" font-size="14.00">147</text>
</g>
<!-- node_125_67 -->
<g id="node31" class="node">
<title>node_125_67</title>
<polygon fill="none" stroke="red" points="332.5,-210 265.5,-210 265.5,-174 332.5,-174 332.5,-210"/>
<text text-anchor="middle" x="299" y="-188.3" font-family="Times,serif" font-size="14.00">(125, 67)</text>
</g>
<!-- node_103_55&#45;&gt;node_125_67 -->
<g id="edge47" class="edge">
<title>node_103_55&#45;&gt;node_125_67</title>
<path fill="none" stroke="black" d="M295.42,-424.49C296.19,-374.66 297.81,-270.03 298.58,-220.33"/>
<polygon fill="black" stroke="black" points="291.92,-424.55 295.27,-434.6 298.92,-424.66 291.92,-424.55"/>
<polygon fill="black" stroke="black" points="302.08,-220.37 298.73,-210.32 295.08,-220.26 302.08,-220.37"/>
<text text-anchor="middle" x="307.5" y="-318.8" font-family="Times,serif" font-size="14.00">101</text>
</g>
<!-- node_105_137&#45;&gt;node_107_99 -->
<g id="edge48" class="edge">
<title>node_105_137&#45;&gt;node_107_99</title>
<path fill="none" stroke="red" d="M95.09,-339.09C100.13,-331.11 105.99,-322.47 112,-315 114.86,-311.44 118.05,-307.85 121.3,-304.39"/>
<polygon fill="red" stroke="red" points="92.05,-337.36 89.8,-347.71 98.01,-341.02 92.05,-337.36"/>
<polygon fill="red" stroke="red" points="123.93,-306.7 128.41,-297.1 118.92,-301.81 123.93,-306.7"/>
<text text-anchor="middle" x="122.5" y="-318.8" font-family="Times,serif" font-size="14.00">183</text>
</g>
<!-- node_123_125 -->
<g id="node32" class="node">
<title>node_123_125</title>
<polygon fill="none" stroke="red" points="95,-297 21,-297 21,-261 95,-261 95,-297"/>
<text text-anchor="middle" x="58" y="-275.3" font-family="Times,serif" font-size="14.00">(123, 125)</text>
</g>
<!-- node_105_137&#45;&gt;node_123_125 -->
<g id="edge49" class="edge">
<title>node_105_137&#45;&gt;node_123_125</title>
<path fill="none" stroke="red" d="M68.68,-338.47C67.69,-335.64 66.77,-332.78 66,-330 63.99,-322.74 62.44,-314.75 61.25,-307.32"/>
<polygon fill="red" stroke="red" points="65.41,-339.72 72.24,-347.81 71.95,-337.22 65.41,-339.72"/>
<polygon fill="red" stroke="red" points="64.7,-306.73 59.81,-297.33 57.77,-307.72 64.7,-306.73"/>
<text text-anchor="middle" x="76.5" y="-318.8" font-family="Times,serif" font-size="14.00">105</text>
</g>
<!-- node_125_67&#45;&gt;node_127_81 -->
<g id="edge59" class="edge">
<title>node_125_67&#45;&gt;node_127_81</title>
<path fill="none" stroke="red" d="M274.47,-166.47C263.09,-155.09 249.62,-141.62 238.28,-130.28"/>
<polygon fill="red" stroke="red" points="272.25,-169.2 281.8,-173.8 277.2,-164.25 272.25,-169.2"/>
<polygon fill="red" stroke="red" points="240.72,-127.77 231.18,-123.18 235.77,-132.72 240.72,-127.77"/>
<text text-anchor="middle" x="269" y="-144.8" font-family="Times,serif" font-size="14.00">91</text>
</g>
<!-- node_123_125&#45;&gt;node_131_105 -->
<g id="edge56" class="edge">
<title>node_123_125&#45;&gt;node_131_105</title>
<path fill="none" stroke="black" d="M70.55,-251.4C71.76,-248.58 72.94,-245.74 74,-243 101.09,-173.13 126.33,-88.37 138.46,-45.94"/>
<polygon fill="black" stroke="black" points="67.27,-250.17 66.38,-260.73 73.66,-253.02 67.27,-250.17"/>
<polygon fill="black" stroke="black" points="141.89,-46.67 141.25,-36.1 135.15,-44.76 141.89,-46.67"/>
<text text-anchor="middle" x="120.5" y="-144.8" font-family="Times,serif" font-size="14.00">163</text>
</g>
<!-- node_139_140 -->
<g id="node36" class="node">
<title>node_139_140</title>
<polygon fill="red" stroke="black" points="74,-210 0,-210 0,-174 74,-174 74,-210"/>
<text text-anchor="middle" x="37" y="-188.3" font-family="Times,serif" font-size="14.00" fill="white">(139, 140)</text>
</g>
<!-- node_123_125&#45;&gt;node_139_140 -->
<g id="edge57" class="edge">
<title>node_123_125&#45;&gt;node_139_140</title>
<path fill="none" stroke="red" stroke-dasharray="5,2" d="M53.75,-260.8C50.88,-249.16 47.02,-233.55 43.73,-220.24"/>
<polygon fill="red" stroke="red" points="47.04,-219.04 41.24,-210.18 40.24,-220.72 47.04,-219.04"/>
<text text-anchor="middle" x="59.5" y="-231.8" font-family="Times,serif" font-size="14.00">182</text>
</g>
<!-- node_125_41&#45;&gt;node_125_67 -->
<g id="edge58" class="edge">
<title>node_125_41&#45;&gt;node_125_67</title>
<path fill="none" stroke="red" d="M341.56,-252.3C333.83,-241.54 324.88,-229.06 317.18,-218.34"/>
<polygon fill="red" stroke="red" points="338.98,-254.72 347.66,-260.8 344.67,-250.63 338.98,-254.72"/>
<polygon fill="red" stroke="red" points="320,-216.26 311.33,-210.18 314.31,-220.34 320,-216.26"/>
<text text-anchor="middle" x="343.5" y="-231.8" font-family="Times,serif" font-size="14.00">241</text>
</g>
<!-- node_127_81&#45;&gt;node_131_105 -->
<g id="edge60" class="edge">
<title>node_127_81&#45;&gt;node_131_105</title>
<path fill="none" stroke="red" d="M193.75,-78.69C185.01,-67.76 174.8,-55 166.08,-44.1"/>
<polygon fill="red" stroke="red" points="191.26,-81.18 200.24,-86.8 196.73,-76.8 191.26,-81.18"/>
<polygon fill="red" stroke="red" points="168.72,-41.8 159.74,-36.18 163.25,-46.17 168.72,-41.8"/>
<text text-anchor="middle" x="195.5" y="-57.8" font-family="Times,serif" font-size="14.00">155</text>
</g>
</g>
</svg>
